<?xml version="1.0" encoding="utf-8"?>
<!-- Generator: Adobe Illustrator 27.0.0, SVG Export Plug-In . SVG Version: 6.00 Build 0)  -->
<svg version="1.1" xmlns="http://www.w3.org/2000/svg" xmlns:xlink="http://www.w3.org/1999/xlink" x="0px" y="0px"
	 viewBox="0 0 841.89 566.93" style="enable-background:new 0 0 841.89 566.93;" xml:space="preserve">
<style type="text/css">
	.st0{fill:url(#SVGID_1_);}
	.st1{fill:url(#SVGID_00000103257900732990598350000001101594911117013690_);}
	.st2{fill:url(#SVGID_00000119106693945236837700000000594861696305093520_);}
	.st3{fill:#FFFFFF;}
	.st4{fill:#FF7816;}
</style>
<g id="BG_1_">
</g>
<g id="graphics">
	<g>
		<linearGradient id="SVGID_1_" gradientUnits="userSpaceOnUse" x1="175.1703" y1="261.9085" x2="129.3656" y2="328.3253">
			<stop  offset="0.2303" style="stop-color:#FFED17"/>
			<stop  offset="1" style="stop-color:#F7A21E"/>
		</linearGradient>
		<path class="st0" d="M200.97,262.17c-6.74-3.28-17.18-3.42-30.2-3.19c-11.15,0.2-18.77,0.61-21.35,0.7
			c-10.46,0.37-15.89,6.6-17.4,10.44c-1.52,3.87-10.09,29.37-10.82,34.91c-0.96,7.23,0.92,12.25,9.89,12.25
			c13.7,0,48.42-47.67,65.17-51.86c6.81-1.71,9.45,0.86,11.57,3.98C207.2,266.94,205.13,264.19,200.97,262.17z"/>
		
			<linearGradient id="SVGID_00000107557051601322352810000002350629897600768186_" gradientUnits="userSpaceOnUse" x1="80.2396" y1="344.5537" x2="112.8342" y2="231.5837">
			<stop  offset="0" style="stop-color:#EA580A"/>
			<stop  offset="0.1755" style="stop-color:#EE6D10"/>
			<stop  offset="0.4615" style="stop-color:#F38A18"/>
			<stop  offset="0.7099" style="stop-color:#F69C1C"/>
			<stop  offset="0.8909" style="stop-color:#F7A21E"/>
		</linearGradient>
		<path style="fill:url(#SVGID_00000107557051601322352810000002350629897600768186_);" d="M128.62,317.13
			c-6.84-0.87-8.28-5.59-7.42-12.1c0.73-5.54,9.58-30.94,10.82-34.91c10.91-34.83,14.79-62.33,15.38-64.85
			c4.17-17.8-14.8-26.42-30.28-3.61c-12.69,18.69-58.95,85.82-63.25,94.64c-3.7,7.59,0,20.84,13.56,20.84
			C87.45,317.13,128.62,317.13,128.62,317.13z"/>
		
			<linearGradient id="SVGID_00000092421985900783807790000000937324515465938367_" gradientUnits="userSpaceOnUse" x1="143.2496" y1="317.4027" x2="170.709" y2="340.7017">
			<stop  offset="0" style="stop-color:#EA580A"/>
			<stop  offset="0.2627" style="stop-color:#EF7211"/>
			<stop  offset="0.6709" style="stop-color:#F5951A"/>
			<stop  offset="0.8909" style="stop-color:#F7A21E"/>
		</linearGradient>
		<path style="fill:url(#SVGID_00000092421985900783807790000000937324515465938367_);" d="M128.82,317.16
			c2.8,0.32,4.7,0.14,8.33-1.93c16.06-9.17,44.48-46.07,59.12-49.8c6.93-1.76,9.64,1.12,11.3,3.57c5.3,7.85,0.79,17.57-4.01,24.81
			c-30.4,45.9-57.96,82.72-70.61,97.85c-9.62,11.51-28.33,8.17-21.47-13.53C113.63,371.36,128.82,317.16,128.82,317.16z"/>
	</g>
	<g>
		<path class="st3" d="M287.29,303.35h-24.96v39.76h-17.72v-80.17c0-5.15,4.01-9.64,9.05-9.64h54.58v15.59h-45.91v19.28h34.4v5.94
			C296.73,299.26,292.33,303.35,287.29,303.35z"/>
		<path class="st3" d="M328.68,291.46h-17.2c2.07-12.94,10.99-19.28,26.77-19.28c18.88,0,28.45,6.34,28.84,19.28v23.77
			c0,19.28-11.38,27.87-29.88,29.19c-16.43,1.32-27.81-6.47-27.81-21.92c0.39-16.77,12.29-21.26,29.62-22.98
			c7.37-0.92,11.12-3.17,11.12-7c-0.39-3.96-4.01-5.94-11.12-5.94C332.95,286.58,329.59,288.16,328.68,291.46z M350.41,314.45v-6.47
			c-4.01,1.72-8.67,3.17-13.71,4.23c-6.85,1.32-10.35,4.62-10.35,9.77c0.39,5.55,3.23,8.19,8.67,8.19
			C344.59,330.16,350.41,324.35,350.41,314.45z"/>
		<path class="st3" d="M405.25,330.43c7.24,0,10.86-2.11,10.86-6.6c0-3.57-5.95-6.47-17.72-8.59c-15.13-2.77-22.89-9.64-23.02-20.6
			c0-15.06,11.64-22.19,27.29-22.45c8.79,0,15.78,1.98,20.95,5.94c5.04,4.09,7.76,9.77,8.15,17.04H420.9
			c-4.01-0.13-6.6-1.58-7.63-4.36c-1.16-3.04-4.66-4.75-10.35-4.75c-6.73,0-10.09,1.85-10.09,5.42c0,3.57,4.4,6.34,13.32,8.06
			c11.64,2.38,19.27,5.42,23.02,8.98c3.23,3.43,4.79,7.66,4.79,12.42c0,17.17-13.19,23.51-31.3,23.51c-9.57,0-16.81-2.11-21.47-6.21
			c-5.17-3.96-7.76-10.04-7.76-18.1h17.59C391.41,327.79,396.84,330.43,405.25,330.43z"/>
		<path class="st3" d="M460.47,285.79h-1.81v38.7c0,2.91,1.68,4.49,5.04,4.49h5.3v13.34c-5.56,0.53-11.64,0.53-18.11-0.13
			c-6.47-0.66-9.57-4.75-9.44-12.55v-76.34h8.92c4.53,0,8.28,4.23,8.28,8.85v11.09h10.35v3.83
			C469.01,282.09,465.26,285.79,460.47,285.79z"/>
		<path class="st4" d="M533.81,300.05c3.75,1.32,6.6,3.43,8.41,6.21c1.55,3.04,2.33,7.53,2.72,13.34l0.78,17.57
			c0.13,2.77,1.16,4.75,2.85,5.94h-19.79c-0.91-1.72-1.29-3.57-1.42-5.42c-0.39-1.32-0.65-6.47-0.78-15.19
			c-0.65-10.83-2.59-14.26-13.19-14.26h-19.14v34.87h-17.98v-80.17c0-5.15,4.01-9.64,9.05-9.64h33.37
			c18.24,0,28.32,7.13,28.32,25.62C547,290.28,542.21,297.67,533.81,300.05z M516.47,268.88h-22.25v23.64h21.21
			c8.54,0,13.32-3.17,13.32-11.89C528.76,272.44,524.49,268.88,516.47,268.88z"/>
		<path class="st4" d="M618.78,308.5c0,24.04-10.48,36.19-31.17,36.19s-31.04-12.15-31.04-36.19c0-24.3,10.35-36.32,31.04-36.32
			S618.78,284.2,618.78,308.5z M574.03,308.5c0.13,13.6,4.66,20.47,13.45,20.47s13.19-7.13,13.32-21c0-13.6-4.4-20.34-13.19-20.34
			C578.56,287.63,574.03,294.63,574.03,308.5z"/>
		<path class="st4" d="M684.61,315.24c0,12.02-2.97,19.94-9.05,23.77c-6.08,3.57-12.8,5.42-20.18,5.42c-7.11,0-13.45-1.98-19.4-5.94
			c-5.95-3.83-8.92-11.49-8.92-23.25v-42h17.2v45.57c0,7.79,3.88,11.62,11.64,11.62s11.64-3.83,11.64-11.62v-36.85
			c-0.13-5.81,2.59-8.72,8.28-8.72h8.79V315.24z"/>
		<path class="st4" d="M711.13,285.79h-1.81v38.7c0,2.91,1.68,4.49,5.04,4.49h5.3v13.34c-5.56,0.53-11.64,0.53-18.11-0.13
			c-6.47-0.66-9.57-4.75-9.44-12.55v-76.34h8.92c4.53,0,8.28,4.23,8.28,8.85v11.09h10.35v3.83
			C719.66,282.09,715.91,285.79,711.13,285.79z"/>
		<path class="st4" d="M757.43,344.69c-20.69-0.66-31.04-12.94-31.04-36.72c0-23.78,10.48-35.66,31.3-35.79
			c21.73,0,31.95,13.6,30.65,40.94h-44.23c0.65,10.7,5.17,16.11,13.58,16.11c4.01,0,7.76-1.72,11.12-5.02
			c1.55-1.72,3.49-2.51,5.82-2.51h12.67C783.55,336.5,774.24,344.69,757.43,344.69z M744.37,300.58h25.74
			c-1.03-9.25-5.3-14-12.67-14C750.06,286.58,745.66,291.33,744.37,300.58z"/>
	</g>
</g>
</svg>
